<svg height='100px' width='100px'  fill="#000000" xmlns="http://www.w3.org/2000/svg" xmlns:xlink="http://www.w3.org/1999/xlink" version="1.1" x="0px" y="0px" viewBox="0 0 64 64" enable-background="new 0 0 64 64" xml:space="preserve"><g><g><path d="M33,7C19.767,7,9,15.474,9,25.889c0,2.521,0.636,4.928,1.781,7.129C8.346,35.193,7,37.957,7,40.889    c0,3.257,1.694,6.369,4.667,8.609v5.391c0,0.385,0.22,0.734,0.567,0.901c0.138,0.066,0.286,0.099,0.433,0.099    c0.223,0,0.444-0.074,0.625-0.219l4.286-3.429c1.452,0.355,2.937,0.536,4.423,0.536c6.46,0,12.242-3.352,14.237-8.188    c1.406-0.154,2.805-0.397,4.182-0.751l7.29,5.832c0.182,0.145,0.402,0.219,0.625,0.219c0.147,0,0.296-0.032,0.434-0.099    c0.346-0.167,0.566-0.517,0.566-0.901V39.71C54.213,36.139,57,31.127,57,25.889C57,15.474,46.233,7,33,7z M22,50.777    c-1.478,0-2.956-0.2-4.392-0.594c-0.309-0.087-0.64-0.018-0.889,0.183l-3.052,2.442v-3.82c0-0.327-0.16-0.633-0.428-0.82    C10.545,46.289,9,43.636,9,40.889c0-2.237,0.996-4.381,2.821-6.127c3.951,5.818,11.66,9.824,20.558,10.003    C32.55,44.904,32.761,45,33,45c0.27,0,0.541-0.004,0.815-0.012C31.725,48.46,27.116,50.777,22,50.777z M47.762,38.375    c-0.268,0.188-0.428,0.493-0.428,0.82v7.613l-6.06-4.848c-0.18-0.144-0.4-0.219-0.625-0.219c-0.089,0-0.178,0.012-0.265,0.036    c-2.414,0.663-4.898,0.999-7.385,0.999c-12.131,0-22-7.576-22-16.889S20.869,9,33,9s22,7.576,22,16.889    C55,30.615,52.361,35.167,47.762,38.375z"></path><path d="M44,29H22c-0.552,0-1,0.448-1,1s0.448,1,1,1h22c0.553,0,1-0.448,1-1S44.553,29,44,29z"></path><path d="M44,21H22c-0.552,0-1,0.448-1,1s0.448,1,1,1h22c0.553,0,1-0.448,1-1S44.553,21,44,21z"></path></g></g></svg>