<svg height='100px' width='100px'  fill="#000000" xmlns="http://www.w3.org/2000/svg" xmlns:xlink="http://www.w3.org/1999/xlink" version="1.1" x="0px" y="0px" viewBox="0 0 100 100" enable-background="new 0 0 100 100" xml:space="preserve"><g><path fill="#000000" d="M14.083,58.901H85.92v-2.151h-4.803c-1.871-4.401-1.928-9.441-0.179-13.864h4.982v-2.151H14.031v0.005   C9.037,40.769,5,44.82,5,49.814c0,5.002,4.028,9.049,9.014,9.086v0.001h0.025c0.015,0,0.029,0.002,0.043,0.002V58.901z    M14.014,56.751v0.024c-0.68-0.038-1.285-0.128-1.867-0.294c-0.351-0.1-0.738-0.251-1.118-0.452   c-0.466-0.222-0.932-0.523-1.355-0.867c-0.229-0.186-0.452-0.394-0.652-0.616c-0.143-0.151-0.28-0.308-0.401-0.473   c-0.079-0.093-0.151-0.194-0.222-0.301c-0.151-0.208-0.287-0.423-0.401-0.652c-0.064-0.108-0.122-0.222-0.172-0.337   c-0.107-0.222-0.208-0.459-0.287-0.703c-0.036-0.072-0.057-0.151-0.079-0.222c-0.029-0.086-0.05-0.172-0.072-0.258   c-0.022-0.072-0.043-0.143-0.057-0.215c-0.036-0.172-0.072-0.351-0.1-0.53c-0.022-0.115-0.036-0.237-0.043-0.358   c-0.014-0.086-0.021-0.172-0.021-0.258c-0.007-0.136-0.014-0.272-0.014-0.409v-0.029c0-0.172,0.007-0.337,0.022-0.502   c0-0.029,0-0.057,0.007-0.093c0.014-0.165,0.029-0.323,0.057-0.48c0-0.014,0-0.021,0.007-0.036c0.029-0.172,0.065-0.344,0.1-0.509   c0-0.021,0.007-0.036,0.014-0.057c0.222-0.882,0.616-1.699,1.14-2.409c0.108-0.143,0.215-0.28,0.337-0.416   c0.108-0.122,0.215-0.244,0.33-0.358c0.158-0.158,0.323-0.308,0.495-0.452c0.136-0.108,0.265-0.215,0.409-0.315   c0.122-0.086,0.237-0.165,0.366-0.237c0.172-0.115,0.344-0.215,0.523-0.301c0.143-0.072,0.294-0.143,0.444-0.208   c0.007-0.007,0.022-0.007,0.029-0.007c0.143-0.057,0.287-0.115,0.437-0.165c0.022-0.007,0.043-0.014,0.064-0.021   c0.093-0.029,0.186-0.057,0.287-0.086c0.565-0.153,1.172-0.23,1.812-0.268v0.007h65.301c-1.613,4.445-1.556,9.434,0.158,13.864   H14.014z"></path><path fill="#000000" d="M85.969,62.49v-0.005H14.08v2.151h4.982c1.749,4.423,1.692,9.463-0.179,13.864H14.08v2.151h71.838v0.002   c0.015,0,0.029-0.002,0.043-0.002h0.025v-0.001C90.972,80.612,95,76.565,95,71.563C95,66.569,90.963,62.518,85.969,62.49z    M92.656,69.928c0.036,0.165,0.072,0.337,0.1,0.509c0.007,0.014,0.007,0.021,0.007,0.036c0.029,0.158,0.043,0.315,0.057,0.48   c0.007,0.036,0.007,0.065,0.007,0.093c0.014,0.165,0.022,0.33,0.022,0.502v0.029c0,0.136-0.007,0.272-0.014,0.409   c0,0.086-0.007,0.172-0.021,0.258c-0.007,0.122-0.022,0.244-0.043,0.358c-0.029,0.179-0.064,0.358-0.1,0.53   c-0.014,0.072-0.036,0.143-0.057,0.215c-0.022,0.086-0.043,0.172-0.072,0.258c-0.022,0.072-0.043,0.151-0.079,0.222   c-0.079,0.244-0.179,0.48-0.287,0.703c-0.05,0.115-0.108,0.229-0.172,0.337c-0.115,0.229-0.251,0.444-0.401,0.652   c-0.072,0.108-0.143,0.208-0.222,0.301c-0.122,0.165-0.258,0.323-0.401,0.473c-0.201,0.222-0.423,0.43-0.652,0.616   c-0.423,0.344-0.889,0.645-1.355,0.867c-0.38,0.201-0.767,0.351-1.118,0.452c-0.582,0.166-1.187,0.256-1.867,0.294V78.5H20.51   c1.713-4.43,1.771-9.42,0.158-13.864h65.301v-0.007c0.64,0.037,1.247,0.114,1.812,0.268c0.1,0.029,0.194,0.057,0.287,0.086   c0.022,0.007,0.043,0.014,0.064,0.021c0.151,0.05,0.294,0.108,0.437,0.165c0.007,0,0.022,0,0.029,0.007   c0.151,0.065,0.301,0.136,0.444,0.208c0.179,0.086,0.351,0.186,0.523,0.301c0.129,0.072,0.244,0.151,0.366,0.237   c0.143,0.1,0.272,0.208,0.409,0.315c0.172,0.143,0.337,0.294,0.495,0.452c0.115,0.115,0.222,0.237,0.33,0.358   c0.122,0.136,0.229,0.272,0.337,0.416c0.523,0.71,0.918,1.527,1.14,2.409C92.649,69.892,92.656,69.907,92.656,69.928z"></path><path fill="#000000" d="M95,21.498v-2.151H23.111v0.005c-4.994,0.028-9.031,4.079-9.031,9.073c0,5.002,4.028,9.049,9.014,9.086   v0.001h0.025c0.015,0,0.029,0.002,0.043,0.002v-0.002H95v-2.151h-4.803c-1.871-4.401-1.928-9.441-0.179-13.864H95z M23.094,35.362   v0.024c-0.68-0.038-1.285-0.128-1.867-0.294c-0.351-0.1-0.738-0.251-1.118-0.452c-0.466-0.222-0.932-0.523-1.355-0.867   c-0.229-0.186-0.452-0.394-0.652-0.616c-0.143-0.151-0.28-0.308-0.401-0.473c-0.079-0.093-0.151-0.194-0.222-0.301   c-0.151-0.208-0.287-0.423-0.401-0.652c-0.064-0.108-0.122-0.222-0.172-0.337c-0.107-0.222-0.208-0.459-0.287-0.703   c-0.036-0.072-0.057-0.151-0.079-0.222c-0.029-0.086-0.05-0.172-0.072-0.258c-0.022-0.072-0.043-0.143-0.057-0.215   c-0.036-0.172-0.072-0.351-0.1-0.53c-0.022-0.115-0.036-0.237-0.043-0.358c-0.014-0.086-0.021-0.172-0.021-0.258   c-0.007-0.136-0.014-0.272-0.014-0.409v-0.029c0-0.172,0.007-0.337,0.022-0.502c0-0.029,0-0.057,0.007-0.093   c0.014-0.165,0.029-0.323,0.057-0.48c0-0.014,0-0.021,0.007-0.036c0.029-0.172,0.065-0.344,0.1-0.509   c0-0.021,0.007-0.036,0.014-0.057c0.222-0.882,0.616-1.699,1.14-2.409c0.108-0.143,0.215-0.28,0.337-0.416   c0.108-0.122,0.215-0.244,0.33-0.358c0.158-0.158,0.323-0.308,0.495-0.452c0.136-0.108,0.265-0.215,0.409-0.315   c0.122-0.086,0.237-0.165,0.366-0.237c0.172-0.115,0.344-0.215,0.523-0.301c0.143-0.072,0.294-0.143,0.444-0.208   c0.007-0.007,0.022-0.007,0.029-0.007c0.143-0.057,0.287-0.115,0.437-0.165c0.022-0.007,0.043-0.014,0.064-0.021   c0.093-0.029,0.186-0.057,0.287-0.086c0.565-0.153,1.172-0.23,1.812-0.268v0.007h65.301c-1.613,4.445-1.556,9.434,0.158,13.864   H23.094z"></path></g></svg>