<svg height='100px' width='100px'  fill="#000000" xmlns="http://www.w3.org/2000/svg" xmlns:xlink="http://www.w3.org/1999/xlink" version="1.1" x="0px" y="0px" viewBox="0 0 100 100" enable-background="new 0 0 100 100" xml:space="preserve"><path d="M75.714,41.429h-4.286v-15C71.429,14.594,61.835,5,50,5s-21.429,9.594-21.429,21.429v15h-4.286  c-3.55,0-6.429,2.878-6.429,6.429v40.714c0,3.55,2.878,6.429,6.429,6.429h51.429c3.55,0,6.429-2.878,6.429-6.429V47.857  C82.143,44.307,79.265,41.429,75.714,41.429z M56.964,82.143H43.036l2.586-15.517c-1.566-1.277-2.586-3.197-2.586-5.375  c0-3.846,3.118-6.964,6.964-6.964s6.964,3.118,6.964,6.964c0,2.178-1.021,4.098-2.586,5.375L56.964,82.143z M37.143,41.429v-15  c0-7.101,5.756-12.857,12.857-12.857s12.857,5.756,12.857,12.857v15H37.143z"></path></svg>