<svg height='100px' width='100px'  fill="#000000" xmlns="http://www.w3.org/2000/svg" viewBox="0 0 44 44" x="0px" y="0px"><title>iconOmit</title><g style="isolation:isolate;"><g><rect x="-0.66" y="-0.66" width="45.32" height="45.32" style="" fill="none"></rect><circle cx="22" cy="19.81" r="1.96"></circle><circle cx="15.52" cy="19.81" r="1.96"></circle><circle cx="28.48" cy="19.81" r="1.96"></circle><path d="M31.64,7.39H12.36a5.22,5.22,0,0,0-5.22,5.22V27a5.22,5.22,0,0,0,5.22,5.22h5.1L20,35a2.7,2.7,0,0,0,4,0l2.54-2.79h5.1A5.22,5.22,0,0,0,36.85,27V12.61A5.22,5.22,0,0,0,31.64,7.39Z" style="" fill="none" stroke="#000000" stroke-linecap="round" stroke-linejoin="round" stroke-width="3px"></path></g></g></svg>