<svg height='100px' width='100px'  fill="#000000" xmlns="http://www.w3.org/2000/svg" data-name="Layer 1" viewBox="0 0 100 100" x="0px" y="0px"><title>B__36</title><path d="M5,43.153A1.84706,1.84706,0,0,0,6.84705,45H43.153A1.847,1.847,0,0,0,45,43.153V6.847A1.847,1.847,0,0,0,43.153,5H6.84705A1.847,1.847,0,0,0,5,6.847ZM10,10H40V40H10ZM93.153,5H56.847A1.847,1.847,0,0,0,55,6.847V43.153A1.847,1.847,0,0,0,56.847,45H93.153A1.847,1.847,0,0,0,95,43.153V6.847A1.847,1.847,0,0,0,93.153,5ZM90,40H60V10H90ZM5,93.153A1.84707,1.84707,0,0,0,6.84705,95H43.153A1.847,1.847,0,0,0,45,93.153V56.847A1.847,1.847,0,0,0,43.153,55H6.84705A1.847,1.847,0,0,0,5,56.847ZM10,60H40V90H10Zm83.153-5H56.847A1.847,1.847,0,0,0,55,56.847V93.153A1.847,1.847,0,0,0,56.847,95H93.153A1.847,1.847,0,0,0,95,93.153V56.847A1.847,1.847,0,0,0,93.153,55ZM90,90H60V60H90Z"></path></svg>