<svg height="512" viewBox="0 0 64 64" width="512" xmlns="http://www.w3.org/2000/svg"><g id="Social_media" data-name="Social media"><path d="m21.584 57.469a16 16 0 0 0 10.025 3.531h18.391a3.993 3.993 0 0 0 4-3.808 4.161 4.161 0 0 0 -4.226-4.192h2.226a4 4 0 0 0 0-8h3a4 4 0 0 0 0-8h2a3.993 3.993 0 0 0 4-3.808 4.161 4.161 0 0 0 -4.226-4.192h-11.539a2 2 0 0 1 -1.988-2.221l1.013-9.116a6 6 0 0 0 -5.96-6.663h-.3a2 2 0 0 0 -2 2v4a12 12 0 0 1 -12 12h-3v28z" fill="#ffbcab"/><path d="m3 25h18v36h-18z" fill="#006df0"/><circle cx="12" cy="32" fill="#f1f2f2" r="3"/><path d="m3 25h4v36h-4z" fill="#005ece"/><path d="m61 33.192a4.161 4.161 0 0 0 -4.226-4.192h-11.539a2 2 0 0 1 -1.988-2.221l1.013-9.116a6 6 0 0 0 -5.96-6.663h-.3a2 2 0 0 0 -2 2v4a12 12 0 0 1 -12 12h-3v28l.584.469a16 16 0 0 0 10.025 3.531h18.391a3.993 3.993 0 0 0 4-3.808 3.745 3.745 0 0 0 -.6-2.192h-5.4v-2h4a3.995 3.995 0 0 0 4-4 3.964 3.964 0 0 0 -.554-2h-7.446v-2h7a3.995 3.995 0 0 0 4-4 3.964 3.964 0 0 0 -.554-2h-10.446v-2h9a3.993 3.993 0 0 0 4-3.808z" fill="#ffbcab"/><g fill="#ff9478"><path d="m55 37h-7v2h10.446a3.982 3.982 0 0 0 -3.446-2z"/><path d="m52 45h-4v2h7.446a3.982 3.982 0 0 0 -3.446-2z"/><path d="m49.774 53h-1.774v2h5.4a4.322 4.322 0 0 0 -3.626-2z"/></g></g></svg>