<svg id="Capa_1" enable-background="new 0 0 512 512" height="512" viewBox="0 0 512 512" width="512" xmlns="http://www.w3.org/2000/svg"><g><g><path d="m418.037 312.546v-211.923c0-28.722-23.284-52.006-52.006-52.006h-314.025c-28.722 0-52.006 23.284-52.006 52.006v211.923c0 28.722 23.284 52.006 52.006 52.006h4.92c4.499 0 7.902 4.071 7.105 8.499l-2.41 13.379c0-.001 0-.002.001-.003h53.822l12.509-11.874c6.764-6.421 15.735-10.001 25.061-10.001h3.592 209.425c28.722 0 52.006-23.284 52.006-52.006z" fill="#e28086"/><g fill="#dd636e"><path d="m424.745 48.617h-65.214c28.722 0 52.006 23.284 52.006 52.006v211.923c0 28.722-23.284 52.006-52.006 52.006h65.214c28.722 0 52.006-23.284 52.006-52.006v-211.923c0-28.722-23.284-52.006-52.006-52.006z"/><path d="m79.787 369.183-18.166 17.244-10.404 57.771c-.964 5.35 5.468 8.82 9.411 5.078l84.373-80.093c3.132-2.973 7.286-4.631 11.605-4.631h-65.213c-4.319 0-8.473 1.658-11.606 4.631z"/></g><g><g><path d="m413.701 136.369h-350.651c-4.267 0-7.726-3.459-7.726-7.726s3.459-7.726 7.726-7.726h350.65c4.267 0 7.726 3.459 7.726 7.726.001 4.267-3.458 7.726-7.725 7.726z" fill="#f0f7ff"/></g><g><path d="m413.701 205.472h-350.651c-4.267 0-7.726-3.459-7.726-7.726s3.459-7.726 7.726-7.726h350.65c4.267 0 7.726 3.459 7.726 7.726.001 4.267-3.458 7.726-7.725 7.726z" fill="#f0f7ff"/></g><g><path d="m235.332 274.575h-172.282c-4.267 0-7.726-3.459-7.726-7.726s3.459-7.726 7.726-7.726h172.282c4.267 0 7.726 3.459 7.726 7.726s-3.459 7.726-7.726 7.726z" fill="#f0f7ff"/></g></g></g><g><g><path d="m442.303 442.605 1.669-4.176-17.442-39.509c-1.496-3.389-1.589-7.223-.295-10.695 4.094-10.985 6.245-22.917 6.023-35.38-.717-40.359-26.592-74.801-62.454-88.386-39.501 11.859-68.217 48.648-67.863 92.092.427 52.35 43.651 94.889 96.001 94.518 12.981-.092 25.342-2.783 36.596-7.572 2.461-1.047 5.156-1.336 7.765-.892z" fill="#ffe07d"/></g><g><path d="m511.499 455.366-24.615-55.757c-1.48-3.353-1.572-7.146-.292-10.58 4.051-10.868 6.178-22.672 5.959-35.002-.914-51.422-43.091-93.17-94.52-93.581-11.455-.092-22.445 1.843-32.639 5.457 36.42 12.95 62.875 47.517 63.596 88.123.219 12.33-1.908 24.134-5.959 35.002-1.28 3.434-1.188 7.227.292 10.58l18.981 42.996c.7.119 1.396.28 2.077.506l60.105 19.969c4.696 1.56 9.013-3.188 7.015-7.713z" fill="#ffd064"/></g><g><g><g><g><g><g><path d="m397.613 391.905c-4.267 0-7.726-3.459-7.726-7.726v-29.266c0-4.267 3.459-7.726 7.726-7.726 5.607 0 10.825-2.243 14.693-6.317 3.864-4.07 5.832-9.409 5.54-15.033-.547-10.536-9.249-18.956-19.811-19.169-10.258-.216-19.073 7.283-20.488 17.422-.13.931-.196 1.885-.196 2.836 0 4.267-3.459 7.726-7.726 7.726s-7.726-3.459-7.726-7.726c0-1.66.116-3.332.344-4.969 2.497-17.888 18.009-31.122 36.104-30.738 18.623.375 33.967 15.23 34.932 33.817.514 9.898-2.954 19.3-9.766 26.474-4.915 5.177-11.288 8.737-18.173 10.275v22.395c-.001 4.266-3.46 7.725-7.727 7.725z" fill="#e28086"/></g></g></g><circle cx="397.613" cy="410.685" fill="#e28086" r="7.709"/></g></g></g></g></g></svg>