<svg height="512" viewBox="0 0 64 64" width="512" xmlns="http://www.w3.org/2000/svg"><g id="Contact_form" data-name="Contact form"><path d="m13 3h40v47h-40z" fill="#ffeb99"/><path d="m19 7h28v6h-28z" fill="#d80027"/><path d="m19 18h6v6h-6z" fill="#2488ff"/><path d="m19 28h6v6h-6z" fill="#2488ff"/><path d="m19 38h6v6h-6z" fill="#2488ff"/><path d="m29 50h24v-24a24 24 0 0 1 -24 24z" fill="#ffde55"/><path d="m61 40.48v13.7a5.958 5.958 0 0 1 -1.01 3.33l-.65.98a2.021 2.021 0 0 0 -.34 1.12l.01 1.39h-14.01v-2l-.57-.86a9.934 9.934 0 0 1 -1.33-8.14h5.07l.02-.03a6.24 6.24 0 0 1 1.46-4.57l-2.96-2.96-2.29-2.29a3.005 3.005 0 0 1 4.25-4.25l.78.78 3.57 3.57v-11.08l5.66 5.66a7.985 7.985 0 0 1 2.34 5.65z" fill="#ffbcab"/><g fill="#ff6243"><path d="m47 24h-16a1 1 0 0 1 0-2h16a1 1 0 0 1 0 2z"/><path d="m40 34h-9a1 1 0 0 1 0-2h9a1 1 0 0 1 0 2z"/><path d="m30 43a1 1 0 0 0 1 1h12a1 1 0 0 0 0-2h-12a1 1 0 0 0 -1 1z"/><path d="m47 20h-16a1 1 0 0 1 0-2h16a1 1 0 0 1 0 2z"/></g><path d="m22.293 22.707a1 1 0 0 0 1.414 0l5-5a1 1 0 0 0 -1.414-1.414l-4.293 4.293-1.293-1.293a1 1 0 0 0 -1.414 1.414z" fill="#5eac24"/><path d="m27.293 26.293-4.293 4.293-1.293-1.293a1 1 0 0 0 -1.414 1.414l2 2a1 1 0 0 0 1.414 0l5-5a1 1 0 0 0 -1.414-1.414z" fill="#5eac24"/><path d="m27.293 36.293-4.293 4.293-1.293-1.293a1 1 0 0 0 -1.414 1.414l2 2a1 1 0 0 0 1.414 0l5-5a1 1 0 0 0 -1.414-1.414z" fill="#5eac24"/><path d="m47 30h-16a1 1 0 0 1 0-2h16a1 1 0 0 1 0 2z" fill="#ff6243"/><path d="m40 40h-9a1 1 0 0 1 0-2h9a1 1 0 0 1 0 2z" fill="#ff6243"/><path d="m48.53 53.42.47.58h1l-.47-.58a6.284 6.284 0 0 1 -1.341-3.42h-1a6.284 6.284 0 0 0 1.341 3.42z" fill="#ff9478"/></g></svg>