<svg id="Capa_1" enable-background="new 0 0 512 512" height="512" viewBox="0 0 512 512" width="512" xmlns="http://www.w3.org/2000/svg"><g><path d="m416 65h-401c-8.284 0-15 6.716-15 15v288c0 8.284 6.716 15 15 15h401c8.284 0 15-6.716 15-15v-288c0-8.284-6.716-15-15-15z" fill="#ff7d47"/><path d="m430.03 373.3c-2.2 5.83-7.79 9.7-14.03 9.7h-401c-6.25 0-11.84-3.87-14.04-9.72s-.54-12.45 4.16-16.57l201-176c5.637-4.94 14.114-4.966 19.79.03l200 176c4.68 4.12 6.33 10.72 4.12 16.56z" fill="#ffb454"/><path d="m430.03 373.3c-2.2 5.83-7.79 9.7-14.03 9.7h-200v-206c3.54 0 7.07 1.24 9.91 3.74l200 176c4.68 4.12 6.33 10.72 4.12 16.56z" fill="#ff9d21"/><path d="m425.91 91.26-200 176c-5.655 4.976-14.109 4.988-19.79.03l-201-176c-4.7-4.12-6.36-10.72-4.16-16.57 2.2-5.85 7.79-9.72 14.04-9.72h401c6.24 0 11.83 3.87 14.03 9.7 2.21 5.84.56 12.44-4.12 16.56z" fill="#ffe278"/><path d="m425.91 91.26-200 176c-2.83 2.49-6.37 3.74-9.91 3.74v-206h200c6.24 0 11.83 3.87 14.03 9.7 2.21 5.84.56 12.44-4.12 16.56z" fill="#ffb454"/><path d="m487 264v32c0 8.28-6.72 15-15 15s-15-6.72-15-15v-32c0-22.44-18.12-40.73-40.5-41h-.5c-22.61 0-41 18.39-41 41v32c0 8.28-6.72 15-15 15s-15-6.72-15-15v-32c0-39.15 31.85-71 71-71 .17 0 .33 0 .5.01 38.92.26 70.5 32.01 70.5 70.99z" fill="#eef4ff"/><path d="m487 264v32c0 8.28-6.72 15-15 15s-15-6.72-15-15v-32c0-22.44-18.12-40.73-40.5-41v-29.99c38.92.26 70.5 32.01 70.5 70.99z" fill="#d9e6fc"/><path d="m512 296v136c0 8.28-6.72 15-15 15h-161c-8.28 0-15-6.72-15-15v-136c0-8.28 6.72-15 15-15h161c8.28 0 15 6.72 15 15z" fill="#425796"/><path d="m512 296v136c0 8.28-6.72 15-15 15h-81v-166h81c8.28 0 15 6.72 15 15z" fill="#283758"/><path d="m431 360v8c0 8.11-6.45 14.73-14.5 14.99-.16.01-.33.01-.5.01-8.28 0-15-6.72-15-15v-8c0-8.28 6.72-15 15-15 .17 0 .34 0 .5.01 8.05.26 14.5 6.88 14.5 14.99z" fill="#dd5958"/><path d="m431 360v8c0 8.11-6.45 14.73-14.5 14.99v-37.98c8.05.26 14.5 6.88 14.5 14.99z" fill="#d8225b"/></g></svg>