<svg height='100px' width='100px'  fill="#000000" xmlns="http://www.w3.org/2000/svg" xmlns:xlink="http://www.w3.org/1999/xlink" version="1.1" x="0px" y="0px" viewBox="0 0 100 100" enable-background="new 0 0 100 100" xml:space="preserve"><polygon points="25.815,36.664 39.202,38.003 36.19,88.539 22.133,88.539 "></polygon><rect x="43.059" y="31.786" transform="matrix(0.9988 -0.0481 0.0481 0.9988 -2.6944 2.4741)" width="14.057" height="50.928"></rect><rect x="61.25" y="17.94" transform="matrix(0.9937 -0.1122 0.1122 0.9937 -5.4428 7.9909)" width="14.058" height="68.831"></rect><rect x="5.092" y="52.369" transform="matrix(0.999 -0.0437 0.0437 0.999 -2.9806 0.5951)" width="14.056" height="32.202"></rect><rect x="80.223" y="6.668" transform="matrix(0.9994 -0.0344 0.0344 0.9994 -1.5471 3.0283)" width="14.055" height="79.632"></rect><rect x="41.18" y="27.173" transform="matrix(0.9981 -0.0613 0.0613 0.9981 -1.6644 3.0122)" width="14.228" height="2.958"></rect><rect x="5.615" y="86.592" width="14.228" height="2.959"></rect><rect x="44.323" y="85.113" transform="matrix(0.9962 -0.0872 0.0872 0.9962 -7.3582 4.8175)" width="14.228" height="2.959"></rect><rect x="4.209" y="47.334" width="14.228" height="2.958"></rect></svg>