<svg height='100px' width='100px'  fill="#000000" xmlns:x="http://ns.adobe.com/Extensibility/1.0/" xmlns:i="http://ns.adobe.com/AdobeIllustrator/10.0/" xmlns:graph="http://ns.adobe.com/Graphs/1.0/" xmlns="http://www.w3.org/2000/svg" xmlns:xlink="http://www.w3.org/1999/xlink" version="1.1" x="0px" y="0px" viewBox="0 0 100 100" enable-background="new 0 0 100 100" xml:space="preserve"><metadata><sfw xmlns="http://ns.adobe.com/SaveForWeb/1.0/"><slices></slices><sliceSourceBounds width="1445.9" height="1140.4" y="-1142.6" x="2" bottomLeftOrigin="true"></sliceSourceBounds></sfw></metadata><g><path d="M13,51.8v35.3c0,4.2,3.4,7.6,7.6,7.6h58.7c4.2,0,7.6-3.4,7.6-7.6V51.8c0-4.2-3.4-7.6-7.6-7.6h-0.2V34.1   c0-15.9-13-28.9-28.9-28.9c-0.4,0-0.7,0-1.1,0C33.5,5.8,21.3,19.2,21.3,34.8v9.3h-0.7C16.4,44.2,13,47.6,13,51.8z M55.7,78.3   c0.2,0.9-0.5,1.7-1.4,1.7H50h-4.3c-0.9,0-1.6-0.8-1.4-1.7l1.6-8.1c-1.6-1.4-2.5-3.5-2.2-5.9c0.4-2.8,2.7-4.9,5.5-5.3   c0.3,0,0.5,0,0.8,0c3.5,0,6.4,2.8,6.4,6.4c0,2-0.9,3.7-2.3,4.9L55.7,78.3z M34,34.6c0-8.5,6.3-15.9,14.7-16.7   c0.5,0,1.1-0.1,1.6-0.1c9,0,16.3,7.3,16.3,16.3l0,10.1h0H34V34.6z"></path></g></svg>