<svg id="flat" viewBox="0 0 512 512" xmlns="http://www.w3.org/2000/svg"><path d="m96 184a16 16 0 0 0 -16 16v200h352v-200a16 16 0 0 0 -16-16z" fill="#9ce6ed"/><path d="m120 184h272a0 0 0 0 1 0 0v160a32 32 0 0 1 -32 32h-208a32 32 0 0 1 -32-32v-160a0 0 0 0 1 0 0z" fill="#6cdbe6"/><path d="m368 96v240a16 16 0 0 1 -16 16h-40v-272h40a16 16 0 0 1 16 16z" fill="#ffe28f"/><rect fill="#accd2a" height="272" rx="16" width="192" x="144" y="80"/><g fill="#cbe046"><path d="m240 104a64 64 0 1 0 64 64 64.0727 64.0727 0 0 0 -64-64zm31.5249 75.43146c.312-3.73572.4751-7.55811.4751-11.43146s-.16309-7.69574-.4751-11.43146c10.56983 3.48737 16.4751 8.22246 16.4751 11.43146s-5.90527 7.94409-16.4751 11.43146zm-31.5249 36.56854c-3.209 0-7.94409-5.90521-11.4314-16.4751 3.7356.312 7.558.4751 11.4314.4751s7.6958-.16309 11.4314-.4751c-3.48731 10.56989-8.2224 16.4751-11.4314 16.4751zm0-32a117.78944 117.78944 0 0 1 -15.059-.941 120.96076 120.96076 0 0 1 0-30.11792 120.96076 120.96076 0 0 1 30.11792 0 120.96076 120.96076 0 0 1 0 30.11792 117.78944 117.78944 0 0 1 -15.05892.941zm-48-16c0-3.209 5.90527-7.94409 16.4751-11.43146-.312 3.73572-.4751 7.558-.4751 11.43146s.16309 7.69574.4751 11.43146c-10.56983-3.48737-16.4751-8.22246-16.4751-11.43146zm48-48c3.209 0 7.94409 5.90521 11.4314 16.4751-3.7356-.312-7.558-.4751-11.4314-.4751s-7.6958.16309-11.4314.4751c3.48731-10.56989 8.2224-16.4751 11.4314-16.4751zm40.91284 22.92932a87.82963 87.82963 0 0 0 -12.09643-3.74567 87.8575 87.8575 0 0 0 -3.74561-12.09643 48.36833 48.36833 0 0 1 15.84204 15.8421zm-65.98364-15.8421a87.8575 87.8575 0 0 0 -3.74561 12.09643 87.82963 87.82963 0 0 0 -12.09643 3.74567 48.36833 48.36833 0 0 1 15.84204-15.8421zm-15.842 65.98346a87.82963 87.82963 0 0 0 12.09643 3.74567 87.8575 87.8575 0 0 0 3.74561 12.09643 48.36833 48.36833 0 0 1 -15.84208-15.8421zm65.98364 15.8421a87.8575 87.8575 0 0 0 3.74561-12.09643 87.82963 87.82963 0 0 0 12.09643-3.74567 48.36833 48.36833 0 0 1 -15.84208 15.8421z"/><path d="m168 248h24v16h-24z"/><path d="m168 248h24v16h-24z"/><path d="m280 248h32v16h-32z"/><path d="m208 248h56v16h-56z"/><path d="m192 280h40v16h-40z"/><path d="m248 280h32v16h-32z"/><path d="m224 312h32v16h-32z"/></g><path d="m488 400v16a15.99555 15.99555 0 0 1 -16 16h-432a15.99555 15.99555 0 0 1 -16-16v-16z" fill="#e8f2ff"/><path d="m304 400a8.00261 8.00261 0 0 1 -2.34009 5.65991l-8 8a8.0079 8.0079 0 0 1 -5.65991 2.34009h-64a8.0079 8.0079 0 0 1 -5.65991-2.34009l-8-8a8.00261 8.00261 0 0 1 -2.34009-5.65991z" fill="#d1e4ff"/></svg>