<svg id="Capa_1" enable-background="new 0 0 510 510" height="512" viewBox="0 0 510 510" width="512" xmlns="http://www.w3.org/2000/svg"><g><path d="m315 50h195v284.8h-195z" fill="#d5e8fe"/><path d="m120 50h195v284.8h-195z" fill="#edf5ff"/><path d="m360 115h90v90h-90z" fill="#ff415b"/><path d="m375 235h75v30h-75z" fill="#2f374f"/><path d="m180 115h135l4.56 15-4.56 15h-135z" fill="#3b5a71"/><path d="m315 115h15v30h-15z" fill="#2f374f"/><path d="m217.5 175.2-22.5 284.8h-195v-284.8z" fill="#ffdd90"/><path d="m195 175.2h195v284.8h-195z" fill="#e7b964"/><path d="m195 354.13 22.5 105.87h-217.5v-65.19l139.56-90.28z" fill="#64e1dc"/><path d="m390 344v116h-195v-105.87l105-94.13z" fill="#4bb9ec"/><path d="m0 175.198v104.802h32.934c39.801 0 72.066-32.265 72.066-72.066v-32.736z" fill="#ffb01c"/></g></svg>