<svg id="Capa_1" enable-background="new 0 0 512 512" height="512" viewBox="0 0 512 512" width="512" xmlns="http://www.w3.org/2000/svg"><g><g><g><path clip-rule="evenodd" d="m64.574 11.112v278.238l48.165 12 291.576-255.299v-34.939c0-6.121-5.025-11.112-11.149-11.112h-317.442c-6.125 0-11.15 4.991-11.15 11.112z" fill="#c6d0da" fill-rule="evenodd"/></g></g><g><g><path clip-rule="evenodd" d="m122.283 46.051c-5.262 0-9.544 4.278-9.544 9.507v233.792l162.779 24.868 149.787-88.091v-170.568c0-5.229-4.281-9.507-9.544-9.507h-11.447-282.031z" fill="#faf8f9" fill-rule="evenodd"/></g></g><g><g><path clip-rule="evenodd" d="m209.247 100.451c-11.684 13.429-26.253 19.431-44.775 21.035-2.111.178-3.241-.178-3.36 2.199-2.408 46.735 19.028 73.533 48.314 92.786.624.416.446.416 1.07 0 29.285-19.223 50.722-46.051 48.343-92.786-.149-2.377-1.278-2.02-3.389-2.199-18.523-1.604-33.061-7.606-44.746-21.035-.892-1.01-.594-1.01-1.457 0z" fill="#ccf49f" fill-rule="evenodd"/></g></g><g><g><path clip-rule="evenodd" d="m247.393 289.35h-134.654-48.165-4.281c-11.982 0-21.793 9.804-21.793 21.778v149.592c0 11.973 9.811 21.778 21.793 21.778h207.436 162.214 21.763c11.982 0 21.793-9.804 21.793-21.778v-207.706c0-14.796-12.13-26.918-26.937-26.918l-21.258.03-20.99.03-94.724.149c-8.206.03-15.46 1.634-20.098 15.687l-10.079 30.423c-2.497 16.252-14.36 16.935-32.02 16.935z" fill="#ffe07d" fill-rule="evenodd"/></g></g><g><g><path d="m399.261 383.326c-4.27 0-7.731-3.459-7.731-7.726v-28.047c0-11.221-9.122-20.35-20.335-20.35h-44.687c-11.229 0-20.364 9.129-20.364 20.35v28.047c0 4.268-3.461 7.726-7.731 7.726s-7.731-3.459-7.731-7.726v-28.047c0-19.741 16.072-35.803 35.827-35.803h44.687c19.738 0 35.797 16.061 35.797 35.803v28.047c-.001 4.267-3.462 7.726-7.732 7.726z" fill="#e5e1e5"/></g></g><g><path clip-rule="evenodd" d="m278.105 378.66c-6.214 3.743-10.376 10.547-10.376 18.272v85.566 8.17c0 11.736 9.603 21.332 21.347 21.332h119.52c11.744 0 21.347-9.596 21.347-21.332v-8.17-85.566c0-11.706-9.603-21.332-21.347-21.332h-4.281-5.054-100.849-9.336c-4.014-.001-7.76 1.128-10.971 3.06z" fill="#c6d0da" fill-rule="evenodd"/></g><g><path clip-rule="evenodd" d="m348.836 418.798c-10.376 0-18.761 8.408-18.761 18.777 0 10.339 8.384 18.747 18.761 18.747 10.376 0 18.76-8.408 18.76-18.747.001-10.369-8.383-18.777-18.76-18.777z" fill="#918291" fill-rule="evenodd"/></g><g><g><path clip-rule="evenodd" d="m404.315 46.051-56.133-.03c33.864 52.231 45.132 119.05 36.361 180.164l19.771-.03 20.99-.03v-170.566c0-5.229-4.281-9.507-9.544-9.507h-11.445z" fill="#e5e1e5" fill-rule="evenodd"/></g></g><g><g><path clip-rule="evenodd" d="m404.315 226.156-15.133.03c5.619.03 10.822 1.812 15.133 4.783 1.873 1.307 3.568 2.823 5.054 4.546 4.103 4.724 6.6 10.874 6.6 17.589v115.098 8.735c8.146 3.001 13.974 10.844 13.974 19.995v85.566h21.763c11.982 0 21.793-9.804 21.793-21.778v-207.706c0-14.796-12.13-26.918-26.937-26.918l-21.258.03z" fill="#ffc250" fill-rule="evenodd"/></g></g><g><path clip-rule="evenodd" d="m403.364 396.931v85.566 8.17c0 11.736-9.603 21.332-21.347 21.332h26.58c11.744 0 21.347-9.596 21.347-21.332v-8.17-85.566c0-9.151-5.827-16.994-13.974-19.995-2.319-.862-4.787-1.337-7.373-1.337h-4.281-5.054-17.244c4.014 0 7.76 1.129 10.971 3.06 6.212 3.744 10.375 10.548 10.375 18.272z" fill="#a0aab7" fill-rule="evenodd"/></g><g><g><path clip-rule="evenodd" d="m221.586 110.315c.595 5.11.892 10.31.892 15.598 0 30.275-10.138 58.143-27.115 80.099 2.854 2.436 5.857 4.724 8.949 6.952 1.665 1.188 3.389 2.347 5.114 3.506.624.416.446.416 1.07 0 16.204-10.636 29.999-23.59 38.681-40.971 7.046-14.023 10.703-30.929 9.663-51.815-.149-2.377-1.278-2.02-3.389-2.199-13.172-1.128-24.321-4.515-33.865-11.17z" fill="#95d6a4" fill-rule="evenodd"/></g></g><g><path d="m374.762 108.118h-66.955c-4.27 0-7.731-3.459-7.731-7.726 0-4.268 3.461-7.726 7.731-7.726h66.955c4.27 0 7.731 3.459 7.731 7.726s-3.461 7.726-7.731 7.726z" fill="#918291"/></g><g><g><path d="m374.762 145.613h-66.955c-4.27 0-7.731-3.459-7.731-7.726s3.461-7.726 7.731-7.726h66.955c4.27 0 7.731 3.459 7.731 7.726s-3.461 7.726-7.731 7.726z" fill="#918291"/></g></g><g><g><path d="m374.762 183.107h-66.955c-4.27 0-7.731-3.459-7.731-7.726s3.461-7.726 7.731-7.726h66.955c4.27 0 7.731 3.459 7.731 7.726s-3.461 7.726-7.731 7.726z" fill="#918291"/></g></g><path d="m346.062 406.529c-14.171 0-25.699 11.541-25.699 25.727 0 11.562 7.676 21.362 18.199 24.579v15.797c0 4.143 3.357 7.5 7.5 7.5s7.5-3.357 7.5-7.5v-15.797c10.523-3.217 18.2-13.017 18.2-24.579 0-14.186-11.53-25.727-25.7-25.727zm0 36.425c-5.899 0-10.699-4.799-10.699-10.698 0-5.915 4.8-10.727 10.699-10.727 5.9 0 10.7 4.812 10.7 10.727 0 5.899-4.8 10.698-10.7 10.698z" fill="#a0aab7"/></g></svg>